<svg width="107" height="47" viewBox="0 0 107 47" fill="none" xmlns="http://www.w3.org/2000/svg">
<path d="M62 15V19C62 19.5304 61.7893 20.0391 61.4142 20.4142C61.0391 20.7893 60.5304 21 60 21H46C45.4696 21 44.9609 20.7893 44.5858 20.4142C44.2107 20.0391 44 19.5304 44 19V15" stroke="black" stroke-width="2" stroke-linecap="round" stroke-linejoin="round"/>
<path d="M58 8L53 3L48 8" stroke="black" stroke-width="2" stroke-linecap="round" stroke-linejoin="round"/>
<path d="M53 3V15" stroke="black" stroke-width="2" stroke-linecap="round" stroke-linejoin="round"/>
<path d="M5.73495 43.224C4.37229 43.224 3.34562 42.86 2.65495 42.132C1.96429 41.404 1.61895 40.319 1.61895 38.877V31.45H3.03995V38.52C3.03995 39.6447 3.25929 40.4777 3.69795 41.019C4.14129 41.5557 4.82029 41.824 5.73495 41.824C6.64962 41.824 7.32629 41.5557 7.76495 41.019C8.20829 40.4777 8.42995 39.6447 8.42995 38.52V31.45H9.85795V38.877C9.85795 40.319 9.51262 41.404 8.82195 42.132C8.13129 42.86 7.10229 43.224 5.73495 43.224ZM12.9077 46.64V35.832H14.2657V37.134C14.555 36.6533 14.9447 36.28 15.4347 36.014C15.9293 35.7433 16.473 35.608 17.0657 35.608C17.7563 35.608 18.37 35.7737 18.9067 36.105C19.448 36.4363 19.875 36.889 20.1877 37.463C20.5003 38.0323 20.6567 38.6833 20.6567 39.416C20.6567 40.1393 20.5003 40.7903 20.1877 41.369C19.8797 41.943 19.4573 42.3957 18.9207 42.727C18.384 43.0583 17.775 43.224 17.0937 43.224C16.5057 43.224 15.9643 43.0863 15.4697 42.811C14.975 42.5357 14.5737 42.1507 14.2657 41.656V46.64H12.9077ZM16.7367 42.055C17.222 42.055 17.6537 41.943 18.0317 41.719C18.4097 41.4903 18.706 41.1777 18.9207 40.781C19.1353 40.3843 19.2427 39.9317 19.2427 39.423C19.2427 38.9097 19.133 38.4547 18.9137 38.058C18.699 37.6567 18.4027 37.344 18.0247 37.12C17.6513 36.8913 17.222 36.777 16.7367 36.777C16.2513 36.777 15.8173 36.8913 15.4347 37.12C15.0567 37.344 14.758 37.6543 14.5387 38.051C14.324 38.4477 14.2167 38.9027 14.2167 39.416C14.2167 39.9293 14.324 40.3843 14.5387 40.781C14.758 41.1777 15.0567 41.4903 15.4347 41.719C15.8173 41.943 16.2513 42.055 16.7367 42.055ZM22.9975 43V30.96H24.3555V43H22.9975ZM30.6871 43.224C29.9264 43.224 29.2404 43.063 28.6291 42.741C28.0224 42.419 27.5394 41.971 27.1801 41.397C26.8254 40.823 26.6481 40.1627 26.6481 39.416C26.6481 38.6647 26.8254 38.0043 27.1801 37.435C27.5394 36.861 28.0224 36.413 28.6291 36.091C29.2404 35.769 29.9264 35.608 30.6871 35.608C31.4478 35.608 32.1314 35.769 32.7381 36.091C33.3494 36.413 33.8324 36.861 34.1871 37.435C34.5464 38.0043 34.7261 38.6647 34.7261 39.416C34.7261 40.1627 34.5464 40.823 34.1871 41.397C33.8324 41.971 33.3494 42.419 32.7381 42.741C32.1314 43.063 31.4478 43.224 30.6871 43.224ZM30.6941 42.041C31.1934 42.041 31.6414 41.929 32.0381 41.705C32.4348 41.481 32.7474 41.1707 32.9761 40.774C33.2048 40.3773 33.3191 39.9247 33.3191 39.416C33.3191 38.9027 33.2048 38.45 32.9761 38.058C32.7474 37.6613 32.4348 37.351 32.0381 37.127C31.6414 36.903 31.1934 36.791 30.6941 36.791C30.1901 36.791 29.7398 36.903 29.3431 37.127C28.9464 37.351 28.6338 37.6613 28.4051 38.058C28.1764 38.45 28.0621 38.9027 28.0621 39.416C28.0621 39.9247 28.1764 40.3773 28.4051 40.774C28.6338 41.1707 28.9464 41.481 29.3431 41.705C29.7398 41.929 30.1901 42.041 30.6941 42.041ZM39.9945 43.224C39.3272 43.224 38.7228 43.0607 38.1815 42.734C37.6448 42.4027 37.2178 41.95 36.9005 41.376C36.5878 40.802 36.4315 40.1463 36.4315 39.409C36.4315 38.681 36.5855 38.0323 36.8935 37.463C37.2015 36.889 37.6238 36.4363 38.1605 36.105C38.6972 35.7737 39.3085 35.608 39.9945 35.608C40.6012 35.608 41.1542 35.7433 41.6535 36.014C42.1575 36.2847 42.5472 36.6603 42.8225 37.141V35.832H44.1805V43H42.8225V41.656C42.5098 42.1507 42.1085 42.5357 41.6185 42.811C41.1285 43.0863 40.5872 43.224 39.9945 43.224ZM40.3585 42.055C40.8485 42.055 41.2802 41.943 41.6535 41.719C42.0315 41.4903 42.3278 41.1777 42.5425 40.781C42.7572 40.3843 42.8645 39.9293 42.8645 39.416C42.8645 38.9027 42.7572 38.4477 42.5425 38.051C42.3278 37.6543 42.0315 37.344 41.6535 37.12C41.2802 36.8913 40.8485 36.777 40.3585 36.777C39.8732 36.777 39.4415 36.8913 39.0635 37.12C38.6855 37.344 38.3868 37.6543 38.1675 38.051C37.9528 38.4477 37.8455 38.9027 37.8455 39.416C37.8455 39.9247 37.9528 40.3797 38.1675 40.781C38.3868 41.1777 38.6855 41.4903 39.0635 41.719C39.4415 41.943 39.8732 42.055 40.3585 42.055ZM50.0773 43.224C49.4147 43.224 48.8127 43.0607 48.2713 42.734C47.7347 42.4073 47.3077 41.957 46.9903 41.383C46.6777 40.809 46.5213 40.1533 46.5213 39.416C46.5213 38.6833 46.6753 38.0323 46.9833 37.463C47.296 36.889 47.7207 36.4363 48.2573 36.105C48.7987 35.7737 49.4147 35.608 50.1053 35.608C50.7027 35.608 51.2463 35.7433 51.7363 36.014C52.231 36.2847 52.623 36.6603 52.9123 37.141V30.953H54.2703V43H52.9123V41.656C52.6043 42.146 52.203 42.531 51.7083 42.811C51.2137 43.0863 50.67 43.224 50.0773 43.224ZM50.4413 42.055C50.9313 42.055 51.3653 41.943 51.7433 41.719C52.1213 41.4903 52.4177 41.1777 52.6323 40.781C52.847 40.3843 52.9543 39.9317 52.9543 39.423C52.9543 38.9097 52.847 38.4547 52.6323 38.058C52.4177 37.6567 52.1213 37.344 51.7433 37.12C51.3653 36.8913 50.9337 36.777 50.4483 36.777C49.963 36.777 49.5313 36.8913 49.1533 37.12C48.7753 37.344 48.4767 37.6567 48.2573 38.058C48.0427 38.4547 47.9353 38.9097 47.9353 39.423C47.9353 39.9317 48.0427 40.3843 48.2573 40.781C48.472 41.1777 48.7683 41.4903 49.1463 41.719C49.5243 41.943 49.956 42.055 50.4413 42.055ZM60.7796 43V35.832H62.1376V43H60.7796ZM61.4586 34.383C61.3046 34.383 61.1622 34.3457 61.0316 34.271C60.9056 34.1917 60.8029 34.0867 60.7236 33.956C60.6489 33.8253 60.6116 33.683 60.6116 33.529C60.6116 33.3703 60.6489 33.228 60.7236 33.102C60.8029 32.976 60.9056 32.8757 61.0316 32.801C61.1622 32.7217 61.3046 32.682 61.4586 32.682C61.6172 32.682 61.7596 32.7217 61.8856 32.801C62.0116 32.8757 62.1119 32.976 62.1866 33.102C62.2659 33.228 62.3056 33.3703 62.3056 33.529C62.3056 33.683 62.2659 33.8253 62.1866 33.956C62.1119 34.0867 62.0116 34.1917 61.8856 34.271C61.7596 34.3457 61.6172 34.383 61.4586 34.383ZM65.0112 43V35.832H66.3692V36.756C66.6725 36.3733 67.0155 36.0863 67.3982 35.895C67.7808 35.7037 68.2055 35.608 68.6722 35.608C69.2508 35.608 69.7595 35.741 70.1982 36.007C70.6368 36.2683 70.9425 36.6253 71.1152 37.078C71.4138 36.6207 71.7732 36.2613 72.1932 36C72.6132 35.7387 73.1055 35.608 73.6702 35.608C74.1835 35.608 74.6385 35.713 75.0352 35.923C75.4318 36.133 75.7445 36.4363 75.9732 36.833C76.2018 37.2297 76.3162 37.7103 76.3162 38.275V43H74.9582V38.653C74.9582 38.0557 74.8018 37.582 74.4892 37.232C74.1765 36.882 73.7612 36.707 73.2432 36.707C72.8838 36.707 72.5595 36.7863 72.2702 36.945C71.9855 37.099 71.7592 37.302 71.5912 37.554C71.4278 37.8013 71.3462 38.0627 71.3462 38.338V43H69.9882V38.562C69.9882 37.9973 69.8342 37.547 69.5262 37.211C69.2182 36.875 68.8075 36.707 68.2942 36.707C67.9348 36.707 67.6082 36.784 67.3142 36.938C67.0248 37.0873 66.7938 37.2833 66.6212 37.526C66.4532 37.7687 66.3692 38.023 66.3692 38.289V43H65.0112ZM82.1039 43.224C81.4365 43.224 80.8322 43.0607 80.2909 42.734C79.7542 42.4027 79.3272 41.95 79.0099 41.376C78.6972 40.802 78.5409 40.1463 78.5409 39.409C78.5409 38.681 78.6949 38.0323 79.0029 37.463C79.3109 36.889 79.7332 36.4363 80.2699 36.105C80.8065 35.7737 81.4179 35.608 82.1039 35.608C82.7105 35.608 83.2635 35.7433 83.7629 36.014C84.2669 36.2847 84.6565 36.6603 84.9319 37.141V35.832H86.2899V43H84.9319V41.656C84.6192 42.1507 84.2179 42.5357 83.7279 42.811C83.2379 43.0863 82.6965 43.224 82.1039 43.224ZM82.4679 42.055C82.9579 42.055 83.3895 41.943 83.7629 41.719C84.1409 41.4903 84.4372 41.1777 84.6519 40.781C84.8665 40.3843 84.9739 39.9293 84.9739 39.416C84.9739 38.9027 84.8665 38.4477 84.6519 38.051C84.4372 37.6543 84.1409 37.344 83.7629 37.12C83.3895 36.8913 82.9579 36.777 82.4679 36.777C81.9825 36.777 81.5509 36.8913 81.1729 37.12C80.7949 37.344 80.4962 37.6543 80.2769 38.051C80.0622 38.4477 79.9549 38.9027 79.9549 39.416C79.9549 39.9247 80.0622 40.3797 80.2769 40.781C80.4962 41.1777 80.7949 41.4903 81.1729 41.719C81.5509 41.943 81.9825 42.055 82.4679 42.055ZM92.4037 46.85C91.4797 46.85 90.7004 46.6727 90.0657 46.318C89.431 45.9633 88.962 45.4453 88.6587 44.764L89.7857 44.232C90.0004 44.6753 90.3434 45.0277 90.8147 45.289C91.286 45.555 91.8157 45.688 92.4037 45.688C92.9077 45.688 93.3557 45.5877 93.7477 45.387C94.1444 45.1863 94.4547 44.8993 94.6787 44.526C94.9074 44.1527 95.0217 43.707 95.0217 43.189V41.656C94.7184 42.146 94.3194 42.531 93.8247 42.811C93.33 43.0863 92.784 43.224 92.1867 43.224C91.524 43.224 90.9244 43.0607 90.3877 42.734C89.851 42.4073 89.424 41.957 89.1067 41.383C88.7894 40.809 88.6307 40.1533 88.6307 39.416C88.6307 38.6833 88.787 38.0323 89.0997 37.463C89.4124 36.889 89.837 36.4363 90.3737 36.105C90.915 35.7737 91.5287 35.608 92.2147 35.608C92.812 35.608 93.358 35.7433 93.8527 36.014C94.3474 36.2847 94.737 36.6603 95.0217 37.141V35.832H96.3797V43.196C96.3797 43.9613 96.2234 44.617 95.9107 45.163C95.6027 45.709 95.1524 46.1267 94.5597 46.416C93.967 46.7053 93.2484 46.85 92.4037 46.85ZM92.5507 42.055C93.0407 42.055 93.4747 41.943 93.8527 41.719C94.2354 41.4903 94.534 41.1777 94.7487 40.781C94.9634 40.3843 95.0707 39.9317 95.0707 39.423C95.0707 38.9097 94.961 38.4547 94.7417 38.058C94.527 37.6567 94.2307 37.344 93.8527 37.12C93.4747 36.8913 93.043 36.777 92.5577 36.777C92.0724 36.777 91.6407 36.8913 91.2627 37.12C90.8847 37.344 90.586 37.6567 90.3667 38.058C90.152 38.4547 90.0447 38.9097 90.0447 39.423C90.0447 39.9317 90.152 40.3843 90.3667 40.781C90.5814 41.1777 90.8777 41.4903 91.2557 41.719C91.6337 41.943 92.0654 42.055 92.5507 42.055ZM102.558 43.224C101.807 43.224 101.133 43.0583 100.535 42.727C99.9379 42.3957 99.4665 41.9453 99.1212 41.376C98.7759 40.802 98.6032 40.1557 98.6032 39.437C98.6032 38.905 98.7012 38.408 98.8972 37.946C99.0932 37.484 99.3662 37.078 99.7162 36.728C100.066 36.3733 100.472 36.098 100.934 35.902C101.396 35.706 101.891 35.608 102.418 35.608C103.165 35.608 103.818 35.762 104.378 36.07C104.943 36.378 105.382 36.8073 105.694 37.358C106.012 37.9087 106.17 38.548 106.17 39.276C106.17 39.3367 106.168 39.3857 106.163 39.423C106.159 39.4603 106.149 39.5093 106.135 39.57H99.9752C99.9752 40.0693 100.087 40.5103 100.311 40.893C100.54 41.2757 100.853 41.5767 101.249 41.796C101.651 42.0107 102.11 42.118 102.628 42.118C103.118 42.118 103.557 42.0177 103.944 41.817C104.332 41.6163 104.668 41.3177 104.952 40.921L105.946 41.439C105.606 42.0037 105.137 42.4423 104.539 42.755C103.947 43.0677 103.286 43.224 102.558 43.224ZM100.045 38.569H104.805C104.74 38.2003 104.595 37.8783 104.371 37.603C104.152 37.323 103.874 37.106 103.538 36.952C103.207 36.7933 102.841 36.714 102.439 36.714C102.019 36.714 101.639 36.791 101.298 36.945C100.962 37.0943 100.685 37.309 100.465 37.589C100.251 37.8643 100.111 38.191 100.045 38.569Z" fill="black"/>
</svg>
